<svg xmlns="http://www.w3.org/2000/svg" viewBox="0 0 64 64" role="img" aria-label="صروح بابل">
  <defs>
    <linearGradient id="g" x1="0" y1="0" x2="1" y2="1">
      <stop offset="0" stop-color="#0daec0"/>
      <stop offset="1" stop-color="#0a4884"/>
    </linearGradient>
  </defs>
  <rect width="64" height="64" rx="14" fill="#071f38"/>
  <!-- Teal globe swoosh, as in the logo -->
  <path d="M6 42c8 7 18 10 26 10s20-3 26-10" fill="none" stroke="url(#g)" stroke-width="4.5" stroke-linecap="round"/>
  <path d="M11 34a21 21 0 0 0 42 0" fill="none" stroke="#0daec0" stroke-width="2" stroke-linecap="round" opacity=".5"/>
  <!-- Stepped merlon gate towers -->
  <g fill="#f6f8fb">
    <path d="M13 20h3v-3h3v3h3v-3h3v3h3v16H13z"/>
    <path d="M39 20h3v-3h3v3h3v-3h3v3h3v16H39z"/>
    <path d="M27 25h3v-3h4v3h3v11h-3v-6a2 2 0 0 0-4 0v6h-3z"/>
  </g>
  <g fill="#0daec0">
    <rect x="16" y="24" width="2.5" height="2.5" rx=".6"/>
    <rect x="22" y="24" width="2.5" height="2.5" rx=".6"/>
    <rect x="42" y="24" width="2.5" height="2.5" rx=".6"/>
    <rect x="48" y="24" width="2.5" height="2.5" rx=".6"/>
  </g>
</svg>
